<?xml version="1.0" encoding="UTF-8"?>
<svg viewBox="0 0 548.76 308.7" xmlns="http://www.w3.org/2000/svg">
 <g fill-rule="evenodd" stroke="#000" stroke-width="2.335">
  <g fill="#007fff">
   <path d="m164.65 215.95c-19.583-4.2126-48.273 22.884-58.292 45.541s-1.3662 40.873 18.216 45.086c19.583 4.2125 50.095-5.5788 60.114-28.235 10.019-22.657-0.45541-58.179-20.038-62.391z"/>
   <path d="m449.32 214.86c-19.583-4.2125-48.273 22.884-58.292 45.541s-1.3662 40.873 18.216 45.086c19.583 4.2125 50.095-5.5787 60.114-28.235 10.019-22.657-0.45538-58.179-20.038-62.391z"/>
  </g>
  <path d="m54.251 256.88l-0.6441-21.898 5.7964-3.8643-3.2202-11.593 3.8643-1.9321 0.644-21.254-6.4405-1.9321 0.644-9.0167 6.4405-3.8643c5.6891-41.648 6.8698-86.195 21.898-121.08l-3.2202-8.3727c42.722-36.281 139.54-41.004 218.98-47.015 178.34-17.24 238.51 27.265 246.67 47.66l-23.186 5.7965-4.5084 17.389 10.305 83.726 13.525-1.2881 5.7964 8.3726-14.169 10.305-9.6607 43.151 7.7285 0.644-3.8643 34.134-3.8643 15.457-50.88 18.999c-17.282-17.497 26.621-55.281-34.134-67.303-22.542-2.7908-38.643 28.553-52.168 56.676-67.41 4.2936-139.33 5.3671-207.38 1.9321 0.85873-10.949 27.935-44.973-17.389-56.676-50.132-8.6528-32.417 33.49-54.744 47.015l-56.032-3.8643 3.2202-10.305zm491.8-203.4c-3.9542 27.787-3.6552 77.641-4.8735 104.18" fill="#ff0"/>
  <path d="m435.16 250.4c-4.9069-1.0555-12.096 5.7341-14.606 11.411-2.5105 5.6771-0.34235 10.242 4.5644 11.297 4.9068 1.0555 12.552-1.3978 15.063-7.0749 2.5104-5.677-0.11414-14.578-5.0209-15.633z" fill="#00c100"/>
  <g fill="#ff7f00">
   <path d="m493.05 278.6c-0.53668-51.094 36.603-12.344 46.049-27.05 6.0111-0.32202 3.6496 13.525-0.96606 21.576-3.2202 8.2653-36.711 5.9038-45.083 5.4744z"/>
   <path d="m540.95 216.45c5.3671-8.2653 6.5478-28.767 0.32196-37.033-11.486-17.389-18.785 35.101-15.779 39.287 9.3387 0.85876 7.0845-1.8248 15.457-2.2542z"/>
  </g>
  <g fill="none">
   <path d="m477.01 282.94c8.1215-33.776 8.9564-69.374-44.858-63.757-55.18 5.0095-33.624 32.226-52.144 49.531-11.082 8.4251-25.351 1.2469-35.294 5.1178"/>
   <path d="m491.35 181.66l-389.83 1.8216"/>
   <path d="m487.71 204.43l-372.53-3.6432"/>
   <path d="m188.68 274.94c11.971-25.512 9.5513-54.802-30.646-59.792-54.923-1.7441-37.638 42.657-57.372 48.273-8.1974 2.5806-14.118-6.6793-21.86-4.5541"/>
  </g>
  <path d="m149.62 254.21c-4.9068-1.0555-12.096 5.7341-14.606 11.411-2.5104 5.6771-0.34233 10.242 4.5644 11.297 4.9068 1.0555 12.552-1.3978 15.063-7.075 2.5104-5.677-0.11412-14.578-5.0209-15.633z" fill="#00c100"/>
  <path d="m80.657 280.06c2.7909-8.2653-2.1468-25.547-30.27-19.965-0.85873 6.4404 0.21468 14.813 3.2202 18.999 9.3387 0.85876 18.677 1.3954 27.05 0.96606z" fill="#cd0000"/>
 </g>
 <g fill="#fff">
  <g transform="matrix(.39918 -.22408 .22408 .39918 -250.98 57.082)">
   <g stroke="#000" stroke-width="5.1">
    <path d="m365.06 703.5a59.176 61.566 0 1 1 -0.02301 -1.7181"/>
    <path d="m379 723.99a49.244 51.234 0 1 1 -0.019196 -1.4297"/>
    <path d="m391.21 749.36a39.68 41.283 0 1 1 -0.015472 -1.152"/>
    <path d="m404.85 770.37a36.142 37.602 0 1 1 -0.014099 -1.0493"/>
   </g>
   <path d="m375.52 751.84c-11.7-30.523-38.909-78.647-62.674-90.529-12.712-6.356-51.651 23.046-46.757 35.814 10.36 27.026 63.757 69.185 92.519 83.566 7.7151 3.8574 20.466-19.58 16.912-28.85z" fill-rule="evenodd"/>
  </g>
  <g transform="matrix(.3381 -.096461 .096461 .3381 -52.895 123.41)">
   <g stroke="#000" stroke-width="5.1">
    <path d="m218.63 449.68a59.176 61.566 0 1 1 -0.023056 -1.718"/>
    <path d="m232.58 470.17a49.244 51.234 0 1 1 -0.01918 -1.4297"/>
    <path d="m244.79 495.53a39.68 41.283 0 1 1 -0.015472 -1.152"/>
    <path d="m258.42 516.54a36.142 37.602 0 1 1 -0.014099 -1.0493"/>
   </g>
   <path d="m229.1 498.02c-11.7-30.523-38.909-78.647-62.674-90.529-12.712-6.356-51.651 23.046-46.757 35.814 10.36 27.026 63.757 69.185 92.519 83.566 7.7151 3.8574 20.466-19.58 16.912-28.85z" fill-rule="evenodd"/>
  </g>
 </g>
 <g fill-rule="evenodd" stroke="#000">
  <path d="m404.15 66.018c-2.0152 30.7-2.519 71.704-9.446 101.44-26.323 4.9377-58.313 0.53668-91.815-1.2881 1.7632-35.422 0.12592-68.913 4.5341-101.12 25.063-0.21469 71.664 1.1808 96.727 0.9661z" fill="#fff" stroke-width="2.335"/>
  <path d="m317.04 165.99c-5.6997 0.30362-8.7277-1.2144-14.427-0.91083 4.631-32.182 1.2468-68.008 5.8778-100.19 24.936-0.30359 69.961 1.6496 94.897 1.346-0.35623 6.3757-1.0299 16.87-1.3861 23.246 0.89059-23.681-68.218-15.484-88.167-15.484-3.5623 25.807-8.7277 66.186 3.2061 91.993z" stroke-width=".458"/>
  <path d="m296.55 66.594c-4.3513 28.123-6.015 101.97-12.286 99.183-22.524 1.3954-56.95-1.0734-91.377 0 1.7917-35.423 3.9674-65.693 5.3751-97.251 25.468-0.21469 72.82-1.7175 98.288-1.9321z" fill="#fff" stroke-width="2.335"/>
  <path d="m200.51 164.88c1.2084-0.19638-0.8331-0.3588-6.6247-0.055176 2.0181-32.504 5.322-62.72 4.2687-95.225 25.338-0.30359 72.811-2.2513 98.15-2.5549-0.362 6.3757-2.9294 27.166-3.2914 33.542 12.748-35.745-65.22-23.465-85.491-23.465-8.611 11.638-8.2195 87.955-7.0112 87.758z" stroke-width=".458"/>
  <path d="m503.33 62.627c6.3888 33.432 5.3811 66.864 3.2353 97.564-28.028 8.581-57.895 3.0253-93.97 4.2644 1.8775-35.423-3.0845-72.133 3.2185-103.69 26.687-0.21469 60.259-2.0205 87.516 1.8635z" fill="#fff" stroke-width="2.335"/>
  <path d="m430.58 163.99c-6.1522 0.29857-12.304 0.59718-18.457 0.89575 1.538-31.65-1.5381-71.809 3.4606-103.46 26.916-0.2986 50.372-1.4929 87.093 0.89576-0.38455 6.2702 2.1148 5.8223 1.7303 12.093-20.956-14.332-60.369-6.2702-81.902-6.2702-3.8452 25.38-7.6904 74.049 8.0749 95.845z" stroke-width=".458"/>
  <path d="m189.35 71.713c-2.2712 30.7-4.5425 61.399-6.8138 92.099-29.668 4.9377-57.207 3.1129-95.393 7.0845 1.9874-35.423 1.8454-68.913 17.46-98.539 28.249-0.21466 56.498-0.42935 84.746-0.64404z" fill="#fff" stroke-width="2.335"/>
  <path d="m98.911 170.45c-6.4868 0.31-6.4736 1.012-12.96 1.322 5.2705-32.832 4.6607-67.871 16.811-99.389 28.38-0.3097 59.339-0.6195 87.719-0.9292-0.40601 6.5044-1.391 6.7589-1.796 13.263-22.704-6.5705-57.018-5.5705-78.861 1-10.935 26.328-14.599 56.434-10.913 84.732z" stroke-width=".458"/>
 </g>
</svg>
